# xmcd
#
# Track frame offsets: 
#        150
#        11215
#        23235
#        34485
#        46675
#        62985
#        76617
#        88990
#        99982
#        111347
#        127972
#        140747
#        154020
#        170232
#
# Disc length: 2441 seconds
#
# Revision: 0
# Processed by: cddbd v1.5.2PL0 Copyright (c) Steve Scherf et al.
# Submitted via: ExactAudioCopy v1.3
#
DISCID=bc09870e
DTITLE=Stompin' Tom Connors - At The Gumboot Clogeroo
DYEAR=1977
DGENRE=Country
TTITLE0=Legend Of Marty And Joe
TTITLE1=Jacqueline
TTITLE2=The I Don't Know How To Fix The Damn Thing Blues
TTITLE3=Man From The Land
TTITLE4=Farewell To Nova Scotia
TTITLE5=Ripped Off Winkle
TTITLE6=Gum-Boot Cloggeroo
TTITLE7=The Happy Hooker
TTITLE8=We Doubt Each Other's Love
TTITLE9=Little Old Forgetful Me
TTITLE10=The Singer
TTITLE11=Isle Of Newfoundland
TTITLE12=Roses In The Snow
TTITLE13=Home On The Island
EXTD=
EXTT0=
EXTT1=
EXTT2=
EXTT3=
EXTT4=
EXTT5=
EXTT6=
EXTT7=
EXTT8=
EXTT9=
EXTT10=
EXTT11=
EXTT12=
EXTT13=
PLAYORDER=
